<?xml version="1.0" encoding="utf-8" ?>
<svg xmlns="http://www.w3.org/2000/svg" xmlns:xlink="http://www.w3.org/1999/xlink" width="1024" height="1024">
	<path fill="#6817C5" transform="scale(2 2)" d="M42.8322 271.262C42.1825 258.052 52.6241 254.378 59.9949 264.605C59.9714 265.338 59.9304 266.068 59.9949 266.8L59.9949 269.634C58.6703 277.722 47.9909 279.126 43.0264 271.562L42.8322 271.262Z"/>
	<path fill="#6817C5" transform="scale(2 2)" d="M388.288 263.404C392.599 259.8 398.835 257.236 403.025 262.54C405.733 265.966 404.912 270.283 405.24 274.318C402.471 275.535 400.427 278.361 395.852 279.993C392.561 278.387 389.65 277.096 388.288 273.431C388.188 270.861 388.32 268.274 388.288 265.7L388.288 263.404Z"/>
	<path fill="#2D0983" transform="scale(2 2)" d="M388.288 273.431C389.65 277.096 392.561 278.387 395.852 279.993C400.427 278.361 402.471 275.535 405.24 274.318C405.274 281.439 407.988 297.122 396.591 296.962C393.244 296.915 390.409 294.689 388.288 292.288L388.288 273.431Z"/>
	<path fill="#2D0983" transform="scale(2 2)" d="M42.8322 271.262L43.0264 271.562C47.9909 279.126 58.6703 277.722 59.9949 269.634L60.0142 284.669C60.0199 287.196 60.1527 289.767 59.9949 292.288C57.8702 294.303 55.0046 296.236 51.9943 296.286C39.6641 296.491 42.8193 278.91 42.8322 271.262Z"/>
	<path fill="#FF8528" transform="scale(2 2)" d="M173.469 82.2896C181.994 87.6441 183.838 97.8449 180.056 106.701C177.457 111.219 175.306 111.925 171.968 115.267C161.709 119.114 151.402 116.936 146.02 106.701C147.659 106.207 151.446 107.087 153.421 107.068C167.996 106.934 173.653 95.4172 173.469 82.2896Z"/>
	<path fill="#FF8528" transform="scale(2 2)" d="M248.125 106.701C255.596 105.892 261.635 107.837 268.713 102.899C279.095 95.6563 274.786 88.8231 276.81 82.2896C291.745 94.5022 285.662 113.88 266.384 117.859C262.114 117.716 257.802 116.153 254.466 113.52C251.609 111.514 249.898 109.731 248.125 106.701Z"/>
	<defs>
		<linearGradient id="gradient_0" gradientUnits="userSpaceOnUse" x1="254.20157" y1="146.20892" x2="251.3147" y2="114.47152">
			<stop offset="0" stop-color="#F9B72A"/>
			<stop offset="1" stop-color="#FFE794"/>
		</linearGradient>
	</defs>
	<path fill="url(#gradient_0)" transform="scale(2 2)" d="M254.466 113.52C257.802 116.153 262.114 117.716 266.384 117.859C263.553 118.287 257.974 125.148 256.368 127.384C252.717 132.469 254.509 146.694 254.466 152.899C254.481 155.435 254.543 157.981 254.466 160.516L241.391 160.516C241.373 157.231 241.33 153.944 241.391 150.659C241.309 145.6 240.798 131.963 241.974 127.891C242.981 124.402 251.225 115.293 254.466 113.52Z"/>
	<path fill="#FFC518" transform="scale(2 2)" d="M241.391 150.659C241.982 149.002 241.754 147.388 241.943 145.679C242.709 145.35 252.414 146.689 254.466 146.623C254.221 148.68 253.646 150.93 254.466 152.899C254.481 155.435 254.543 157.981 254.466 160.516L241.391 160.516C241.373 157.231 241.33 153.944 241.391 150.659Z"/>
	<path fill="#FFC518" transform="scale(2 2)" d="M146.02 106.701C137.959 92.6606 156.695 71.7937 173.469 82.2896C173.653 95.4172 167.996 106.934 153.421 107.068C151.446 107.087 147.659 106.207 146.02 106.701Z"/>
	<path fill="#FFC518" transform="scale(2 2)" d="M248.125 106.701C240.179 89.8142 261.336 71.0094 276.81 82.2896C274.786 88.8231 279.095 95.6563 268.713 102.899C261.635 107.837 255.596 105.892 248.125 106.701Z"/>
	<defs>
		<linearGradient id="gradient_1" gradientUnits="userSpaceOnUse" x1="183.40144" y1="146.16223" x2="188.03287" y2="108.4875">
			<stop offset="0" stop-color="#F9B225"/>
			<stop offset="1" stop-color="#FFEDA6"/>
		</linearGradient>
	</defs>
	<path fill="url(#gradient_1)" transform="scale(2 2)" d="M180.056 106.701C182.957 108.645 193.737 120.329 195.927 123.474C199.374 128.426 198.726 144.605 198.351 151.626C198.449 154.563 198.546 157.582 198.351 160.516C194.091 160.309 189.785 160.372 185.522 160.516C185.444 157.979 185.499 155.437 185.522 152.899C184.913 131.804 189.376 131.523 171.968 115.267C175.306 111.925 177.457 111.219 180.056 106.701Z"/>
	<path fill="#FFC518" transform="scale(2 2)" d="M185.522 152.899C187.812 143.566 183.518 146.532 197.764 147.916C198.319 149.1 197.337 150.605 198.351 151.626C198.449 154.563 198.546 157.582 198.351 160.516C194.091 160.309 189.785 160.372 185.522 160.516C185.444 157.979 185.499 155.437 185.522 152.899Z"/>
	<path fill="#FFE9A9" transform="scale(2 2)" d="M59.9949 264.605C59.0933 239.065 63.7162 233.859 88.7156 233.987L88.7156 279.993C74.5917 279.979 68.592 279.735 59.9949 266.8C59.9304 266.068 59.9714 265.338 59.9949 264.605Z"/>
	<path fill="#FFE9A9" transform="scale(2 2)" d="M359.465 231.386C382.798 231.216 388.775 241.639 388.288 263.404L388.288 265.7C386.372 267.611 385.089 269.954 383.405 272.046C376.957 280.057 369.001 281.335 359.465 281.207C359.146 275.841 359.456 270.293 359.458 264.905L359.465 231.386Z"/>
	<path fill="#FF8528" transform="scale(2 2)" d="M59.9949 266.8C68.592 279.735 74.5917 279.979 88.7156 279.993L88.7156 324.286C80.7826 325.786 71.932 323.238 66.2878 317.467C58.8084 309.819 59.9364 302.043 59.9949 292.288C60.1527 289.767 60.0199 287.196 60.0142 284.669L59.9949 269.634L59.9949 266.8Z"/>
	<path fill="#FF8528" transform="scale(2 2)" d="M359.465 281.207C369.001 281.335 376.957 280.057 383.405 272.046C385.089 269.954 386.372 267.611 388.288 265.7C388.32 268.274 388.188 270.861 388.288 273.431L388.288 292.288C388.288 314.473 384.166 324.386 359.465 324.286L359.465 281.207Z"/>
	<defs>
		<linearGradient id="gradient_2" gradientUnits="userSpaceOnUse" x1="471.00739" y1="160.15581" x2="309.56262" y2="146.97798">
			<stop offset="0" stop-color="#FF830C"/>
			<stop offset="1" stop-color="#FFD037"/>
		</linearGradient>
	</defs>
	<path fill="url(#gradient_2)" transform="scale(2 2)" d="M347.868 79.8006L445.555 79.7802C454.339 79.7704 466.296 79.4877 468.54 91.3562C469.279 95.2628 468.821 99.7402 468.8 103.727L468.792 122.268C468.793 146.051 469.047 169.863 468.782 193.643C468.595 210.375 454.863 209.999 442.428 209.988C432.769 209.98 423.051 209.744 413.399 209.979C404.965 217.409 396.723 225.997 388.288 233.12C382.289 227.852 376.259 216.574 370.979 209.979C367.14 209.951 363.304 209.931 359.465 209.979L322.412 209.979C315.696 210.24 311.384 207.069 307.023 202.294C306.24 200.49 305.664 198.699 305.135 196.806C304.387 191.91 305.135 185.64 305.139 180.577L305.119 167.986C305.097 165.527 304.863 162.959 305.135 160.516C306.439 139.076 304.64 115.146 305.168 93.22C305.549 77.4401 319.035 79.7631 330.611 79.7884C336.359 79.8009 342.124 79.6583 347.868 79.8006ZM425.166 142.233L344.249 142.22C340.397 142.211 332.978 141.049 329.889 143.985C326.445 147.259 330.039 151.724 333.198 153.413L347.868 153.413C378.184 153.415 408.55 153.805 438.859 153.413C441.189 151.837 442.389 150.33 443.46 147.728C440.499 139.123 432.53 142.357 425.166 142.233ZM328.84 119.244C328.636 121.951 328.9 123.208 330.521 125.465C335.735 127.956 342.911 126.794 348.513 126.78L389.116 126.8C394.917 126.837 405.965 128.567 403.972 119.048C402.76 113.257 384.405 115.268 380.121 115.279L353.077 115.284C345.77 115.311 332.752 112.484 328.84 119.244ZM333.198 168.553C327.428 171.709 327.198 178.506 332.52 179.749C341.781 181.912 373.755 179.936 384.96 180.207C391.928 178.475 390.864 168.993 383.415 168.577C369.339 167.79 347.307 167.79 333.198 168.553ZM429.355 168.553C421.762 168.563 414.142 168.707 406.553 168.553C404.653 169.908 402.992 171.585 402.611 173.99C401.386 181.731 412.421 180.18 416.975 180.207L430.505 180.245C436.659 180.26 441.822 181.244 443.46 173.705C440.145 167.155 435.74 168.632 429.355 168.553ZM421.843 115.267C416.71 116.037 412.856 121.578 418.191 125.386C421.351 127.641 433.466 126.854 437.812 126.771C443.048 125.501 444.408 121.1 441.169 116.737C437.074 114.386 426.853 115.242 421.843 115.267Z"/>
	<path fill="#FFC518" transform="scale(2 2)" d="M330.521 125.465L330.21 125.594C327.744 124.39 325.847 120.885 328.84 119.244C328.636 121.951 328.9 123.208 330.521 125.465Z"/>
	<path fill="#FFC518" transform="scale(2 2)" d="M305.135 160.516C306.439 139.076 304.64 115.146 305.168 93.22C305.549 77.4401 319.035 79.7631 330.611 79.7884C336.359 79.8009 342.124 79.6583 347.868 79.8006C343.915 80.464 337.687 78.3344 334.246 80.2759L334.82 80.5058C335.52 82.49 331.761 85.8072 330.521 87.1041C331.048 91.8664 328.399 93.8656 327.544 98.3125C326.049 106.084 326.776 114.289 324.866 121.883C324.395 123.757 322.957 125.443 322.211 127.245C317.671 138.211 319.648 142.106 318.683 152.586C318.435 155.277 317.075 157.774 316.643 160.431C314.827 171.602 316.489 165.114 311.356 173.705C311.539 178.95 311.659 184.25 308.807 188.913L308.655 188.504C309.779 195.12 309.324 195.392 305.135 196.806C304.387 191.91 305.135 185.64 305.139 180.577L305.119 167.986C305.097 165.527 304.863 162.959 305.135 160.516Z"/>
	<defs>
		<linearGradient id="gradient_3" gradientUnits="userSpaceOnUse" x1="227.58516" y1="428.70087" x2="220.85497" y2="158.97626">
			<stop offset="0" stop-color="#350787"/>
			<stop offset="1" stop-color="#6D0CCA"/>
		</linearGradient>
	</defs>
	<path fill="url(#gradient_3)" transform="scale(2 2)" d="M185.522 160.516C189.785 160.372 194.091 160.309 198.351 160.516L226.773 160.526C231.63 160.528 236.543 160.708 241.391 160.516L254.466 160.516L305.135 160.516C304.863 162.959 305.097 165.527 305.119 167.986L305.139 180.577C305.135 185.64 304.387 191.91 305.135 196.806C305.664 198.699 306.24 200.49 307.023 202.294C311.384 207.069 315.696 210.24 322.412 209.979L359.465 209.979L359.465 231.386L359.458 264.905C359.456 270.293 359.146 275.841 359.465 281.207L359.465 324.286L359.465 342.808L359.473 370.488C359.471 379.563 360.217 389.429 357.917 398.249C353.276 416.043 336.926 427.586 318.75 427.846C303.914 428.195 288.921 428.033 274.084 427.846C269.732 428.067 265.26 427.862 260.896 427.857L156.125 427.846L127.333 427.846C124.803 427.144 122.026 427.09 119.449 426.434C104.745 422.687 93.3066 409.685 89.9467 395.151C87.0799 382.751 88.4933 344.357 88.7156 329.811C88.6122 327.978 88.6914 326.122 88.7156 324.286L88.7156 279.993L88.7156 233.987L88.7049 218C88.6995 192.41 98.8272 169.515 126.003 162.268C135.6 159.709 146.325 160.513 156.2 160.513L185.522 160.516Z"/>
	<path fill="#2D0983" transform="scale(2 2)" d="M147.143 409.233L147.288 409.637C144.989 414.865 144.534 410.647 149.139 416.653C150.998 419.078 155.469 420.792 155.03 424.929C153.232 427.063 144.383 425.269 145.972 427.261C152.972 427.24 160.117 426.881 167.101 427.191L167.252 427.359C163.653 427.403 159.661 427.135 156.125 427.846L127.333 427.846C130.817 423.101 139.322 421.398 147.143 409.233Z"/>
	<path fill="#2D0983" transform="scale(2 2)" d="M303.869 413.231C309.014 420.555 316.101 424.024 318.75 427.846C303.914 428.195 288.921 428.033 274.084 427.846C273.468 427.764 272.935 427.638 272.346 427.443L272.429 427.279C280.618 426.918 288.839 427.592 297.013 427.018C297.101 427.011 296.787 426.623 296.716 426.58C296.569 426.489 274.222 425.362 273.14 425.705L272.745 425.46L272.923 425.183C274.604 425.104 277.265 424.616 278.625 423.572C284.022 419.428 295.197 422.466 302.644 416.158C303.677 415.283 304.533 416.05 305.608 416.451C305.302 415.589 304.213 414.499 303.705 413.629L303.869 413.231Z"/>
	<path fill="#FF8528" transform="scale(2 2)" d="M192.008 293.538C213.209 293.171 234.486 293.538 255.696 293.538C240.773 320.832 204.398 321.59 192.008 293.538Z"/>
	<path fill="#FF8528" transform="scale(2 2)" d="M223.442 367.907L255.247 367.895C260.971 367.894 276.144 365.252 276.779 374.143C277.479 383.957 262.879 381.203 257.075 381.201L225.812 381.189L194.589 381.203C188.366 381.204 172.721 383.999 172.241 374.773C171.75 365.315 187.439 367.902 193.03 367.901L223.442 367.907Z"/>
	<path fill="#FFC518" transform="scale(2 2)" d="M162.1 338.803L271.873 338.792C280.093 338.784 293.836 335.998 296.358 345.422C294.973 351.674 291.032 352.317 285.213 352.057L172.179 352.064C167.731 352.075 156.555 353.485 153.017 350.416C145.667 344.039 154.412 338.997 162.1 338.803Z"/>
	<path fill="#6817C5" transform="scale(2 2)" d="M303.869 413.231C283.496 375.885 314.66 335.23 353.438 341.854C355.469 342.201 357.379 342.863 359.465 342.808L359.473 370.488C359.471 379.563 360.217 389.429 357.917 398.249C353.276 416.043 336.926 427.586 318.75 427.846C316.101 424.024 309.014 420.555 303.869 413.231Z"/>
	<path fill="#6817C5" transform="scale(2 2)" d="M88.7156 329.811C89.2862 331.027 88.6897 338.286 88.7156 340.351C108.634 340.315 122.724 339.548 137.951 354.739C153.39 370.143 156.452 389.983 147.143 409.233C139.322 421.398 130.817 423.101 127.333 427.846C124.803 427.144 122.026 427.09 119.449 426.434C104.745 422.687 93.3066 409.685 89.9467 395.151C87.0799 382.751 88.4933 344.357 88.7156 329.811Z"/>
	<defs>
		<linearGradient id="gradient_4" gradientUnits="userSpaceOnUse" x1="224.39954" y1="293.30383" x2="224.17546" y2="234.59665">
			<stop offset="0" stop-color="#FFAF02"/>
			<stop offset="1" stop-color="#FFD563"/>
		</linearGradient>
	</defs>
	<path fill="url(#gradient_4)" transform="scale(2 2)" d="M117.985 225.617C122.509 201.49 139.961 202.285 158.456 202.288L307.023 202.294C311.384 207.069 315.696 210.24 322.412 209.979C331.037 216.14 330.895 224.42 330.521 233.987C330.664 242.33 331.486 266.986 329.642 273.697C326.594 284.785 315.707 293.38 304.204 293.548C288.05 293.783 271.855 293.537 255.696 293.538C234.486 293.538 213.209 293.171 192.008 293.538C176.373 293.535 160.706 293.774 145.076 293.525C132.485 293.325 121.79 285.512 118.781 273.145C116.909 265.452 117.743 235.158 117.985 225.617Z"/>
	<path fill="#6817C5" transform="scale(2 2)" d="M249.069 249.313C250.714 253.731 247.199 257.395 243 257.836C238.249 258.336 206.325 258.249 202.751 257.354C199.02 256.42 198.364 252.487 199.231 249.313C200.609 250.555 201.992 252.445 203.757 253.107C206.966 254.312 244.529 256.414 249.069 249.313Z"/>
	<path fill="#2D0983" transform="scale(2 2)" d="M199.231 249.313C200.203 247.321 201.424 245.741 203.625 245.058C206.339 244.217 238.564 244.351 242.482 244.651C245.576 244.888 247.709 246.531 249.069 249.313C244.529 256.414 206.966 254.312 203.757 253.107C201.992 252.445 200.609 250.555 199.231 249.313Z"/>
	<path fill="#2D0983" transform="scale(2 2)" d="M279.777 231.386C288.561 228.454 294.363 229.978 300.164 237.022C312.838 261.525 271.341 271.009 271.669 244.861C271.753 238.14 275.589 235.786 279.777 231.386Z"/>
	<path fill="#2D0983" transform="scale(2 2)" d="M151.421 233.12C161.166 226.452 168.135 230.6 174.712 237.877C180.606 249.34 172.542 263.921 158.749 262.317C143.682 260.566 139.907 241.862 151.421 233.12Z"/>
	<path fill="#FFE9A9" transform="scale(2 2)" d="M117.985 225.617C122.509 201.49 139.961 202.285 158.456 202.288L307.023 202.294C311.384 207.069 315.696 210.24 322.412 209.979C331.037 216.14 330.895 224.42 330.521 233.987L330.266 234.41C330.254 235.685 330.646 237.463 330.163 238.627C328.352 235.17 325.338 238.151 320.529 238.858C318.352 239.178 303.11 240.584 301.906 239.735C301.556 238.879 301.144 237.36 300.164 237.022C294.363 229.978 288.561 228.454 279.777 231.386C277.014 231.362 273.977 237.414 270.31 237.791C264.399 238.398 255.807 237.757 249.442 237.978C246.298 238.088 243.203 238.882 240.068 239.09C234.2 239.479 222.205 239.408 216.179 239.259C201.356 238.892 197.515 237.592 181.813 239.535C172.666 240.667 178.394 239.587 174.712 237.877C168.135 230.6 161.166 226.452 151.421 233.12C147.997 233.753 147.436 237.659 144.207 238.702C143.752 238.849 120.236 236.622 119.073 236.038C118.067 234.276 118.638 228.405 117.985 225.617Z"/>
</svg>
